<?xml version="1.0" standalone="no"?>
<!DOCTYPE svg PUBLIC "-//W3C//DTD SVG 20010904//EN"
 "http://www.w3.org/TR/2001/REC-SVG-20010904/DTD/svg10.dtd">
<svg version="1.0" xmlns="http://www.w3.org/2000/svg"
 width="512.000000pt" height="512.000000pt" viewBox="0 0 512.000000 512.000000"
 preserveAspectRatio="xMidYMid meet">
<metadata>
Created by potrace 1.14, written by Peter Selinger 2001-2017
</metadata>
<g transform="translate(0.000000,512.000000) scale(0.100000,-0.100000)"
fill="#000000" stroke="none">
<path d="M0 2560 l0 -2560 2560 0 2560 0 0 2560 0 2560 -2560 0 -2560 0 0
-2560z m2377 411 c179 -26 290 -139 314 -318 12 -94 0 -211 -30 -279 -30 -66
-102 -137 -174 -170 -58 -27 -70 -29 -187 -29 -143 0 -201 15 -273 70 -99 75
-142 189 -135 354 4 89 9 116 33 168 71 159 239 234 452 204z m-1381 -13 c1
-2 19 -94 40 -205 21 -111 41 -200 44 -198 3 2 31 94 60 203 l55 199 96 6 c53
3 105 3 117 0 23 -6 24 -8 93 -264 24 -87 45 -157 46 -155 2 2 19 86 38 187
19 101 37 194 40 207 5 21 9 22 121 22 89 0 115 -3 111 -12 -2 -7 -42 -183
-87 -391 l-83 -378 -120 3 -120 3 -66 238 c-36 130 -68 231 -72 225 -6 -12
-129 -452 -129 -463 0 -3 -54 -5 -119 -5 -105 0 -120 2 -125 18 -13 43 -166
743 -166 758 0 15 11 16 112 11 61 -4 112 -8 114 -9z m2484 -93 l0 -95 -125 0
-125 0 0 -295 0 -295 -120 0 -120 0 0 295 0 295 -125 0 -125 0 0 95 0 95 370
0 370 0 0 -95z m652 62 c131 -64 196 -235 169 -438 -24 -178 -109 -272 -272
-299 -35 -5 -148 -10 -251 -10 l-188 0 0 391 0 390 243 -3 242 -3 57 -28z"/>
<path d="M2224 2780 c-31 -12 -72 -65 -84 -108 -15 -54 -12 -151 5 -210 29
-95 126 -137 217 -93 55 26 77 63 87 146 15 130 -13 221 -79 256 -36 20 -109
24 -146 9z"/>
<path d="M3830 2576 l0 -216 58 1 c134 1 172 47 172 209 -1 160 -35 205 -165
217 l-65 6 0 -217z"/>
</g>
</svg>
